<mxfile host="app.diagrams.net" modified="2021-04-03T16:07:35.154Z" agent="5.0 (Windows NT 10.0; Win64; x64) AppleWebKit/537.36 (KHTML, like Gecko) Chrome/89.0.4389.114 Safari/537.36" etag="YRGEZjemYTYZprTXgBtS" version="14.5.6" type="github">
  <diagram id="3wwHeJsyA7r4GK4i-j6K" name="Page-1">
    <mxGraphModel dx="868" dy="393" grid="1" gridSize="10" guides="1" tooltips="1" connect="1" arrows="1" fold="1" page="1" pageScale="1" pageWidth="827" pageHeight="1169" math="0" shadow="0">
      <root>
        <mxCell id="0" />
        <mxCell id="1" parent="0" />
        <mxCell id="-chNeWMZ_TeGg-JcLSL3-16" value="Restaurant Finder System" style="html=1;dashed=0;whitespace=wrap;" vertex="1" parent="1">
          <mxGeometry x="80" y="20" width="680" height="30" as="geometry" />
        </mxCell>
        <mxCell id="-chNeWMZ_TeGg-JcLSL3-17" value="" style="html=1;dashed=0;whitespace=wrap;" vertex="1" parent="1">
          <mxGeometry x="80" y="70" width="680" height="670" as="geometry" />
        </mxCell>
        <mxCell id="-chNeWMZ_TeGg-JcLSL3-18" value="User" style="html=1;dashed=0;whitespace=wrap;" vertex="1" parent="1">
          <mxGeometry x="80" y="50" width="340" height="40" as="geometry" />
        </mxCell>
        <mxCell id="-chNeWMZ_TeGg-JcLSL3-19" value="Admin" style="html=1;dashed=0;whitespace=wrap;" vertex="1" parent="1">
          <mxGeometry x="420" y="50" width="340" height="40" as="geometry" />
        </mxCell>
        <mxCell id="-chNeWMZ_TeGg-JcLSL3-20" value="" style="shape=table;html=1;whiteSpace=wrap;startSize=0;container=1;collapsible=0;childLayout=tableLayout;" vertex="1" parent="1">
          <mxGeometry x="80" y="90" width="340" height="650" as="geometry" />
        </mxCell>
        <mxCell id="-chNeWMZ_TeGg-JcLSL3-21" value="" style="shape=partialRectangle;html=1;whiteSpace=wrap;collapsible=0;dropTarget=0;pointerEvents=0;fillColor=none;top=0;left=0;bottom=0;right=0;points=[[0,0.5],[1,0.5]];portConstraint=eastwest;" vertex="1" parent="-chNeWMZ_TeGg-JcLSL3-20">
          <mxGeometry width="340" height="650" as="geometry" />
        </mxCell>
        <mxCell id="-chNeWMZ_TeGg-JcLSL3-22" value="" style="shape=partialRectangle;html=1;whiteSpace=wrap;connectable=0;overflow=hidden;fillColor=none;top=0;left=0;bottom=0;right=0;" vertex="1" parent="-chNeWMZ_TeGg-JcLSL3-21">
          <mxGeometry width="340" height="650" as="geometry" />
        </mxCell>
        <mxCell id="-chNeWMZ_TeGg-JcLSL3-23" value="" style="ellipse;html=1;shape=startState;fillColor=#000000;strokeColor=#ff0000;" vertex="1" parent="1">
          <mxGeometry x="230" y="110" width="30" height="30" as="geometry" />
        </mxCell>
        <mxCell id="-chNeWMZ_TeGg-JcLSL3-24" value="" style="edgeStyle=orthogonalEdgeStyle;html=1;verticalAlign=bottom;endArrow=open;endSize=8;strokeColor=#ff0000;" edge="1" source="-chNeWMZ_TeGg-JcLSL3-23" parent="1">
          <mxGeometry relative="1" as="geometry">
            <mxPoint x="245" y="180" as="targetPoint" />
          </mxGeometry>
        </mxCell>
        <mxCell id="-chNeWMZ_TeGg-JcLSL3-27" style="edgeStyle=orthogonalEdgeStyle;rounded=0;orthogonalLoop=1;jettySize=auto;html=1;" edge="1" parent="1" source="-chNeWMZ_TeGg-JcLSL3-25" target="-chNeWMZ_TeGg-JcLSL3-26">
          <mxGeometry relative="1" as="geometry" />
        </mxCell>
        <mxCell id="-chNeWMZ_TeGg-JcLSL3-25" value="Login" style="shape=rect;html=1;rounded=1;whiteSpace=wrap;align=center;" vertex="1" parent="1">
          <mxGeometry x="165" y="180" width="155" height="40" as="geometry" />
        </mxCell>
        <mxCell id="-chNeWMZ_TeGg-JcLSL3-31" style="edgeStyle=orthogonalEdgeStyle;rounded=0;orthogonalLoop=1;jettySize=auto;html=1;" edge="1" parent="1" source="-chNeWMZ_TeGg-JcLSL3-26" target="-chNeWMZ_TeGg-JcLSL3-29">
          <mxGeometry relative="1" as="geometry" />
        </mxCell>
        <mxCell id="-chNeWMZ_TeGg-JcLSL3-26" value="Search Restaurant" style="shape=rect;html=1;rounded=1;whiteSpace=wrap;align=center;" vertex="1" parent="1">
          <mxGeometry x="165" y="260" width="155" height="40" as="geometry" />
        </mxCell>
        <mxCell id="-chNeWMZ_TeGg-JcLSL3-33" style="edgeStyle=orthogonalEdgeStyle;rounded=0;orthogonalLoop=1;jettySize=auto;html=1;entryX=0;entryY=0.5;entryDx=0;entryDy=0;entryPerimeter=0;" edge="1" parent="1" source="-chNeWMZ_TeGg-JcLSL3-29" target="-chNeWMZ_TeGg-JcLSL3-32">
          <mxGeometry relative="1" as="geometry" />
        </mxCell>
        <mxCell id="-chNeWMZ_TeGg-JcLSL3-36" style="edgeStyle=orthogonalEdgeStyle;rounded=0;orthogonalLoop=1;jettySize=auto;html=1;entryX=0.5;entryY=0;entryDx=0;entryDy=0;" edge="1" parent="1" source="-chNeWMZ_TeGg-JcLSL3-29" target="-chNeWMZ_TeGg-JcLSL3-35">
          <mxGeometry relative="1" as="geometry" />
        </mxCell>
        <mxCell id="-chNeWMZ_TeGg-JcLSL3-29" value="" style="rhombus;whiteSpace=wrap;html=1;" vertex="1" parent="1">
          <mxGeometry x="202.5" y="350" width="80" height="80" as="geometry" />
        </mxCell>
        <mxCell id="-chNeWMZ_TeGg-JcLSL3-30" style="edgeStyle=orthogonalEdgeStyle;rounded=0;orthogonalLoop=1;jettySize=auto;html=1;exitX=0.5;exitY=1;exitDx=0;exitDy=0;" edge="1" parent="1" source="-chNeWMZ_TeGg-JcLSL3-26" target="-chNeWMZ_TeGg-JcLSL3-26">
          <mxGeometry relative="1" as="geometry" />
        </mxCell>
        <mxCell id="-chNeWMZ_TeGg-JcLSL3-32" value="" style="html=1;shape=mxgraph.sysml.flowFinal;strokeWidth=2;verticalLabelPosition=bottom;verticalAlignment=top;" vertex="1" parent="1">
          <mxGeometry x="350" y="370" width="40" height="40" as="geometry" />
        </mxCell>
        <mxCell id="-chNeWMZ_TeGg-JcLSL3-34" value="Restaurant&lt;br&gt;Not Found" style="text;html=1;strokeColor=none;fillColor=none;align=center;verticalAlign=middle;whiteSpace=wrap;rounded=0;" vertex="1" parent="1">
          <mxGeometry x="289" y="360" width="40" height="20" as="geometry" />
        </mxCell>
        <mxCell id="-chNeWMZ_TeGg-JcLSL3-42" style="edgeStyle=orthogonalEdgeStyle;rounded=0;orthogonalLoop=1;jettySize=auto;html=1;entryX=0.5;entryY=0;entryDx=0;entryDy=0;" edge="1" parent="1" source="-chNeWMZ_TeGg-JcLSL3-35" target="-chNeWMZ_TeGg-JcLSL3-37">
          <mxGeometry relative="1" as="geometry" />
        </mxCell>
        <mxCell id="-chNeWMZ_TeGg-JcLSL3-35" value="View Menu" style="shape=rect;html=1;rounded=1;whiteSpace=wrap;align=center;" vertex="1" parent="1">
          <mxGeometry x="165" y="460" width="155" height="40" as="geometry" />
        </mxCell>
        <mxCell id="-chNeWMZ_TeGg-JcLSL3-41" style="edgeStyle=orthogonalEdgeStyle;rounded=0;orthogonalLoop=1;jettySize=auto;html=1;entryX=0.5;entryY=0;entryDx=0;entryDy=0;" edge="1" parent="1" source="-chNeWMZ_TeGg-JcLSL3-37" target="-chNeWMZ_TeGg-JcLSL3-38">
          <mxGeometry relative="1" as="geometry" />
        </mxCell>
        <mxCell id="-chNeWMZ_TeGg-JcLSL3-37" value="Add Items" style="shape=rect;html=1;rounded=1;whiteSpace=wrap;align=center;" vertex="1" parent="1">
          <mxGeometry x="165" y="540" width="155" height="40" as="geometry" />
        </mxCell>
        <mxCell id="-chNeWMZ_TeGg-JcLSL3-40" style="edgeStyle=orthogonalEdgeStyle;rounded=0;orthogonalLoop=1;jettySize=auto;html=1;" edge="1" parent="1" source="-chNeWMZ_TeGg-JcLSL3-38" target="-chNeWMZ_TeGg-JcLSL3-39">
          <mxGeometry relative="1" as="geometry" />
        </mxCell>
        <mxCell id="-chNeWMZ_TeGg-JcLSL3-38" value="View Total Amount" style="shape=rect;html=1;rounded=1;whiteSpace=wrap;align=center;" vertex="1" parent="1">
          <mxGeometry x="165" y="610" width="155" height="40" as="geometry" />
        </mxCell>
        <mxCell id="-chNeWMZ_TeGg-JcLSL3-39" value="" style="html=1;shape=mxgraph.sysml.actFinal;strokeWidth=2;verticalLabelPosition=bottom;verticalAlignment=top;" vertex="1" parent="1">
          <mxGeometry x="222.5" y="680" width="40" height="40" as="geometry" />
        </mxCell>
        <mxCell id="-chNeWMZ_TeGg-JcLSL3-43" value="&amp;nbsp;Restaurant Found" style="text;html=1;strokeColor=none;fillColor=none;align=center;verticalAlign=middle;whiteSpace=wrap;rounded=0;" vertex="1" parent="1">
          <mxGeometry x="260" y="430" width="40" height="20" as="geometry" />
        </mxCell>
        <mxCell id="-chNeWMZ_TeGg-JcLSL3-44" value="" style="ellipse;html=1;shape=startState;fillColor=#000000;strokeColor=#ff0000;" vertex="1" parent="1">
          <mxGeometry x="575" y="110" width="30" height="30" as="geometry" />
        </mxCell>
        <mxCell id="-chNeWMZ_TeGg-JcLSL3-45" value="" style="edgeStyle=orthogonalEdgeStyle;html=1;verticalAlign=bottom;endArrow=open;endSize=8;strokeColor=#ff0000;" edge="1" source="-chNeWMZ_TeGg-JcLSL3-44" parent="1">
          <mxGeometry relative="1" as="geometry">
            <mxPoint x="590" y="180" as="targetPoint" />
          </mxGeometry>
        </mxCell>
        <mxCell id="-chNeWMZ_TeGg-JcLSL3-78" style="edgeStyle=orthogonalEdgeStyle;rounded=0;orthogonalLoop=1;jettySize=auto;html=1;entryX=0.5;entryY=0;entryDx=0;entryDy=0;" edge="1" parent="1" source="-chNeWMZ_TeGg-JcLSL3-46" target="-chNeWMZ_TeGg-JcLSL3-50">
          <mxGeometry relative="1" as="geometry">
            <Array as="points">
              <mxPoint x="590" y="250" />
              <mxPoint x="590" y="250" />
            </Array>
          </mxGeometry>
        </mxCell>
        <mxCell id="-chNeWMZ_TeGg-JcLSL3-46" value="Login" style="shape=rect;html=1;rounded=1;whiteSpace=wrap;align=center;" vertex="1" parent="1">
          <mxGeometry x="510" y="180" width="155" height="40" as="geometry" />
        </mxCell>
        <mxCell id="-chNeWMZ_TeGg-JcLSL3-64" style="edgeStyle=orthogonalEdgeStyle;rounded=0;orthogonalLoop=1;jettySize=auto;html=1;" edge="1" parent="1" source="-chNeWMZ_TeGg-JcLSL3-50" target="-chNeWMZ_TeGg-JcLSL3-63">
          <mxGeometry relative="1" as="geometry" />
        </mxCell>
        <mxCell id="-chNeWMZ_TeGg-JcLSL3-50" value="Add/Modify Restaurant" style="shape=rect;html=1;rounded=1;whiteSpace=wrap;align=center;" vertex="1" parent="1">
          <mxGeometry x="540" y="280" width="100" height="50" as="geometry" />
        </mxCell>
        <mxCell id="-chNeWMZ_TeGg-JcLSL3-63" value="" style="html=1;shape=mxgraph.sysml.actFinal;strokeWidth=2;verticalLabelPosition=bottom;verticalAlignment=top;" vertex="1" parent="1">
          <mxGeometry x="570" y="450" width="40" height="40" as="geometry" />
        </mxCell>
        <mxCell id="-chNeWMZ_TeGg-JcLSL3-74" style="edgeStyle=orthogonalEdgeStyle;rounded=0;orthogonalLoop=1;jettySize=auto;html=1;exitX=0.5;exitY=1;exitDx=0;exitDy=0;" edge="1" parent="1" source="-chNeWMZ_TeGg-JcLSL3-46" target="-chNeWMZ_TeGg-JcLSL3-46">
          <mxGeometry relative="1" as="geometry" />
        </mxCell>
      </root>
    </mxGraphModel>
  </diagram>
</mxfile>
